<svg width="94" height="106" viewBox="0 0 94 106" fill="none" xmlns="http://www.w3.org/2000/svg">
<path fill-rule="evenodd" clip-rule="evenodd" d="M88.3473 0C85.4081 0 83.0254 2.3827 83.0254 5.32191V8.51497H48.3203C42.7975 8.51497 38.3203 12.9921 38.3203 18.515V83.6655C38.3203 89.1884 42.7975 93.6655 48.3203 93.6655H83.6682C89.191 93.6655 93.6682 89.1884 93.6682 83.6655V21.3942C93.6689 21.3587 93.6692 21.3232 93.6692 21.2876V5.32191C93.6692 2.3827 91.2865 0 88.3473 0Z" fill="#0F343D"/>
<rect x="47.8984" y="18.0947" width="36.189" height="31.9315" rx="5" fill="#F3FF16"/>
<path d="M55.6699 63.8628C58.4313 63.8628 60.6699 66.1014 60.6699 68.8628L60.6699 100.374C60.6699 103.135 58.4313 105.374 55.6699 105.374L5.00016 105.374C2.23874 105.374 0.000162911 103.135 0.000163032 100.374L0.000164409 68.8628C0.00016453 66.1014 2.23874 63.8628 5.00016 63.8628L55.6699 63.8628Z" fill="#FA9DC1"/>
<path d="M50.8538 77.4029C50.027 76.7417 48.9583 76.4925 47.9203 76.7145C46.771 76.9621 45.8313 77.7591 45.4058 78.8453L41.1279 89.4359C41.0328 89.677 40.8249 89.8543 40.5686 89.9103C40.2527 89.9773 40.0238 89.8448 39.9142 89.7585C39.8062 89.6723 39.6241 89.4806 39.6225 89.1595L39.5773 80.0847C39.5725 79.0353 39.0954 78.0561 38.2701 77.3981C37.4433 76.7432 36.3762 76.4924 35.3414 76.7144C34.1728 76.9652 33.2234 77.7766 32.8043 78.8883L27.6738 92.483H30.5526L35.3301 79.8244C35.4268 79.5704 35.6428 79.3835 35.9104 79.326C36.2344 79.2573 36.4697 79.3947 36.5809 79.4825C36.6921 79.5704 36.8791 79.7685 36.8807 80.0975L36.9258 89.1723C36.9307 90.2169 37.4062 91.1913 38.2298 91.8446C39.0535 92.4979 40.1173 92.7439 41.1457 92.5203C42.2852 92.2727 43.2185 91.4804 43.6408 90.4022L47.9187 79.8133C48.0154 79.5657 48.2298 79.3836 48.4925 79.3277C48.8165 79.2574 49.0502 79.3964 49.1614 79.4842C49.2726 79.5721 49.458 79.7702 49.458 80.0992V92.5166H52.1546V80.0976C52.1546 79.045 51.6807 78.0626 50.8538 77.4029Z" fill="#F3FF16"/>
<path d="M16.6395 85.5435L16.0408 86.8679H7.95508L8.44494 85.5435H16.6395ZM15.4844 88.0775L14.8252 89.4321H7.95508L8.44494 88.0775H15.4844ZM18.2118 82.2355L17.2442 84.3037C17.083 84.1909 16.8874 84.0679 16.6576 83.9348C16.4318 83.7978 16.1718 83.6829 15.8775 83.5901C15.5872 83.4934 15.2646 83.445 14.9098 83.445C14.3494 83.445 13.8616 83.5861 13.4463 83.8683C13.0311 84.1505 12.7085 84.59 12.4787 85.1867C12.2529 85.7834 12.14 86.5494 12.14 87.4848C12.14 88.4282 12.2529 89.1963 12.4787 89.7889C12.7085 90.3776 13.0311 90.811 13.4463 91.0892C13.8616 91.3633 14.3494 91.5004 14.9098 91.5004C15.2646 91.5004 15.5872 91.454 15.8775 91.3613C16.1678 91.2686 16.4218 91.1577 16.6395 91.0287C16.8612 90.8997 17.0467 90.7807 17.1958 90.6719L18.1756 92.7402C17.7361 93.103 17.2382 93.3772 16.6818 93.5627C16.1254 93.7441 15.5348 93.8348 14.9098 93.8348C13.8535 93.8348 12.9182 93.5848 12.1037 93.0849C11.2934 92.5809 10.6584 91.8572 10.1987 90.9138C9.73913 89.9663 9.50932 88.8233 9.50932 87.4848C9.50932 86.1503 9.73913 85.0073 10.1987 84.0558C10.6584 83.1043 11.2934 82.3766 12.1037 81.8726C12.9182 81.3646 13.8535 81.1106 14.9098 81.1106C15.559 81.1106 16.1597 81.2074 16.712 81.4009C17.2644 81.5944 17.7643 81.8726 18.2118 82.2355Z" fill="#5359CA"/>
</svg>
